Metropolis-Light.ufo
<glyph name="percent" format="1">
  <advance width="769"/>
  <unicode hex="0025"/>
  <outline>
    <contour>
      <point x="174" y="0" type="line"/>
      <point x="644" y="687" type="line"/>
      <point x="596" y="687" type="line"/>
      <point x="126" y="0" type="line"/>
    </contour>
    <contour>
      <point x="660" y="-10"/>
      <point x="721" y="62"/>
      <point x="721" y="163" type="curve" smooth="yes"/>
      <point x="721" y="263"/>
      <point x="661" y="334"/>
      <point x="575" y="334" type="curve" smooth="yes"/>
      <point x="489" y="334"/>
      <point x="429" y="263"/>
      <point x="429" y="162" type="curve" smooth="yes"/>
      <point x="429" y="61"/>
      <point x="489" y="-10"/>
      <point x="574" y="-10" type="curve" smooth="yes"/>
    </contour>
    <contour>
      <point x="511" y="26"/>
      <point x="465" y="83"/>
      <point x="465" y="163" type="curve" smooth="yes"/>
      <point x="465" y="242"/>
      <point x="510" y="298"/>
      <point x="574" y="298" type="curve" smooth="yes"/>
      <point x="639" y="298"/>
      <point x="685" y="242"/>
      <point x="685" y="162" type="curve" smooth="yes"/>
      <point x="685" y="82"/>
      <point x="639" y="26"/>
      <point x="575" y="26" type="curve" smooth="yes"/>
    </contour>
    <contour>
      <point x="278" y="349"/>
      <point x="339" y="420"/>
      <point x="339" y="521" type="curve" smooth="yes"/>
      <point x="339" y="622"/>
      <point x="279" y="693"/>
      <point x="193" y="693" type="curve" smooth="yes"/>
      <point x="107" y="693"/>
      <point x="47" y="621"/>
      <point x="47" y="519" type="curve" smooth="yes"/>
      <point x="47" y="419"/>
      <point x="107" y="349"/>
      <point x="192" y="349" type="curve" smooth="yes"/>
    </contour>
    <contour>
      <point x="129" y="385"/>
      <point x="83" y="441"/>
      <point x="83" y="520" type="curve" smooth="yes"/>
      <point x="83" y="600"/>
      <point x="128" y="657"/>
      <point x="192" y="657" type="curve" smooth="yes"/>
      <point x="257" y="657"/>
      <point x="303" y="600"/>
      <point x="303" y="520" type="curve" smooth="yes"/>
      <point x="303" y="441"/>
      <point x="257" y="385"/>
      <point x="193" y="385" type="curve" smooth="yes"/>
    </contour>
  </outline>
</glyph>
<glyph name="quotesingle" format="1">
  <advance width="202"/>
  <unicode hex="0027"/>
  <outline>
    <contour>
      <point x="115" y="456" type="line"/>
      <point x="121" y="514"/>
      <point x="131" y="584"/>
      <point x="131" y="616" type="curve" smooth="yes"/>
      <point x="131" y="633"/>
      <point x="117" y="646"/>
      <point x="101" y="646" type="curve" smooth="yes"/>
      <point x="85" y="646"/>
      <point x="71" y="633"/>
      <point x="71" y="616" type="curve" smooth="yes"/>
      <point x="71" y="584"/>
      <point x="81" y="514"/>
      <point x="87" y="456" type="curve"/>
    </contour>
  </outline>
</glyph>
<glyph name="asterisk" format="1">
  <advance width="359"/>
  <unicode hex="002A"/>
  <outline>
    <contour>
      <point x="189" y="404"/>
      <point x="197" y="412"/>
      <point x="197" y="421" type="curve" smooth="yes"/>
      <point x="197" y="452"/>
      <point x="189" y="489"/>
      <point x="185" y="529" type="curve"/>
      <point x="218" y="505"/>
      <point x="247" y="480"/>
      <point x="272" y="464" type="curve" smooth="yes"/>
      <point x="280" y="459"/>
      <point x="292" y="463"/>
      <point x="296" y="471" type="curve" smooth="yes"/>
      <point x="302" y="480"/>
      <point x="298" y="491"/>
      <point x="290" y="495" type="curve" smooth="yes"/>
      <point x="263" y="509"/>
      <point x="228" y="522"/>
      <point x="191" y="539" type="curve"/>
      <point x="228" y="556"/>
      <point x="265" y="567"/>
      <point x="290" y="583" type="curve" smooth="yes"/>
      <point x="298" y="588"/>
      <point x="302" y="598"/>
      <point x="296" y="607" type="curve" smooth="yes"/>
      <point x="292" y="615"/>
      <point x="280" y="618"/>
      <point x="272" y="614" type="curve" smooth="yes"/>
      <point x="245" y="600"/>
      <point x="218" y="573"/>
      <point x="185" y="549" type="curve"/>
      <point x="189" y="589"/>
      <point x="197" y="626"/>
      <point x="197" y="657" type="curve" smooth="yes"/>
      <point x="197" y="666"/>
      <point x="189" y="674"/>
      <point x="179" y="674" type="curve" smooth="yes"/>
      <point x="169" y="674"/>
      <point x="161" y="666"/>
      <point x="161" y="657" type="curve" smooth="yes"/>
      <point x="161" y="626"/>
      <point x="169" y="589"/>
      <point x="173" y="549" type="curve"/>
      <point x="140" y="573"/>
      <point x="112" y="598"/>
      <point x="86" y="614" type="curve" smooth="yes"/>
      <point x="78" y="619"/>
      <point x="67" y="615"/>
      <point x="62" y="607" type="curve" smooth="yes"/>
      <point x="57" y="598"/>
      <point x="61" y="587"/>
      <point x="68" y="583" type="curve" smooth="yes"/>
      <point x="96" y="569"/>
      <point x="130" y="556"/>
      <point x="167" y="539" type="curve"/>
      <point x="130" y="522"/>
      <point x="94" y="511"/>
      <point x="68" y="495" type="curve" smooth="yes"/>
      <point x="60" y="490"/>
      <point x="57" y="480"/>
      <point x="62" y="471" type="curve" smooth="yes"/>
      <point x="67" y="463"/>
      <point x="79" y="460"/>
      <point x="86" y="464" type="curve" smooth="yes"/>
      <point x="114" y="478"/>
      <point x="140" y="505"/>
      <point x="173" y="529" type="curve"/>
      <point x="169" y="489"/>
      <point x="161" y="452"/>
      <point x="161" y="421" type="curve" smooth="yes"/>
      <point x="161" y="412"/>
      <point x="169" y="404"/>
      <point x="179" y="404" type="curve" smooth="yes"/>
    </contour>
  </outline>
</glyph>
<glyph name="comma" format="1">
  <advance width="241"/>
  <unicode hex="002C"/>
  <outline>
    <contour>
      <point x="139" y="-102"/>
      <point x="170" y="-61"/>
      <point x="170" y="-14" type="curve" smooth="yes"/>
      <point x="170" y="17"/>
      <point x="156" y="48"/>
      <point x="130" y="48" type="curve" smooth="yes"/>
      <point x="112" y="48"/>
      <point x="100" y="34"/>
      <point x="100" y="20" type="curve" smooth="yes"/>
      <point x="100" y="7"/>
      <point x="110" y="-3"/>
      <point x="118" y="-12" type="curve" smooth="yes"/>
      <point x="125" y="-20"/>
      <point x="128" y="-28"/>
      <point x="128" y="-36" type="curve" smooth="yes"/>
      <point x="128" y="-58"/>
      <point x="104" y="-81"/>
      <point x="72" y="-104" type="curve"/>
      <point x="94" y="-133" type="line"/>
    </contour>
  </outline>
</glyph>
<glyph name="hyphen" format="1">
  <advance width="371"/>
  <unicode hex="002D"/>
  <outline>
    <contour>
      <point x="315" y="254" type="line"/>
      <point x="315" y="290" type="line"/>
      <point x="56" y="290" type="line"/>
      <point x="56" y="254" type="line"/>
    </contour>
  </outline>
</glyph>
<glyph name="slash" format="1">
  <advance width="369"/>
  <unicode hex="002F"/>
  <outline>
    <contour>
      <point x="23" y="-74" type="line"/>
      <point x="374" y="743" type="line"/>
      <point x="335" y="743" type="line"/>
      <point x="-16" y="-74" type="line"/>
    </contour>
  </outline>
</glyph>
<glyph name="six" format="1">
  <advance width="580"/>
  <unicode hex="0036"/>
  <outline>
    <contour>
      <point x="419" y="-12"/>
      <point x="520" y="91"/>
      <point x="520" y="214" type="curve" smooth="yes"/>
      <point x="520" y="331"/>
      <point x="423" y="429"/>
      <point x="308" y="429" type="curve" smooth="yes"/>
      <point x="189" y="429"/>
      <point x="89" y="351"/>
      <point x="89" y="258" type="curve"/>
      <point x="98" y="208" type="line"/>
      <point x="102" y="308"/>
      <point x="195" y="393"/>
      <point x="301" y="393" type="curve" smooth="yes"/>
      <point x="400" y="393"/>
      <point x="484" y="310"/>
      <point x="484" y="212" type="curve" smooth="yes"/>
      <point x="484" y="110"/>
      <point x="399" y="24"/>
      <point x="299" y="24" type="curve" smooth="yes"/>
      <point x="171" y="24"/>
      <point x="95" y="139"/>
      <point x="95" y="333" type="curve" smooth="yes"/>
      <point x="95" y="526"/>
      <point x="186" y="663"/>
      <point x="314" y="663" type="curve" smooth="yes"/>
      <point x="377" y="663"/>
      <point x="443" y="635"/>
      <point x="491" y="588" type="curve"/>
      <point x="511" y="617" type="line"/>
      <point x="457" y="669"/>
      <point x="385" y="699"/>
      <point x="316" y="699" type="curve" smooth="yes"/>
      <point x="166" y="699"/>
      <point x="60" y="547"/>
      <point x="60" y="333" type="curve" smooth="yes"/>
      <point x="60" y="116"/>
      <point x="149" y="-12"/>
      <point x="299" y="-12" type="curve" smooth="yes"/>
    </contour>
  </outline>
</glyph>
<glyph name="seven" format="1">
  <advance width="590"/>
  <unicode hex="0037"/>
  <outline>
    <contour>
      <point x="205" y="0" type="line"/>
      <point x="514" y="658" type="line"/>
      <point x="514" y="687" type="line"/>
      <point x="59" y="687" type="line"/>
      <point x="59" y="651" type="line"/>
      <point x="471" y="651" type="line"/>
      <point x="165" y="0" type="line"/>
    </contour>
  </outline>
</glyph>
<glyph name="less" format="1">
  <advance width="586"/>
  <unicode hex="003C"/>
  <outline>
    <contour>
      <point x="510" y="146" type="line"/>
      <point x="102" y="344" type="line"/>
      <point x="510" y="542" type="line"/>
      <point x="510" y="586" type="line"/>
      <point x="55" y="366" type="line"/>
      <point x="55" y="322" type="line"/>
      <point x="510" y="102" type="line"/>
    </contour>
  </outline>
</glyph>
<glyph name="greater" format="1">
  <advance width="586"/>
  <unicode hex="003E"/>
  <outline>
    <contour>
      <point x="531" y="322" type="line"/>
      <point x="531" y="366" type="line"/>
      <point x="76" y="586" type="line"/>
      <point x="76" y="542" type="line"/>
      <point x="484" y="344" type="line"/>
      <point x="76" y="146" type="line"/>
      <point x="76" y="102" type="line"/>
    </contour>
  </outline>
</glyph>
<glyph name="B" format="1">
  <advance width="654"/>
  <unicode hex="0042"/>
  <outline>
    <contour>
      <point x="393" y="0" type="line" smooth="yes"/>
      <point x="512" y="0"/>
      <point x="597" y="78"/>
      <point x="597" y="188" type="curve" smooth="yes"/>
      <point x="597" y="264"/>
      <point x="546" y="335"/>
      <point x="474" y="358" type="curve"/>
      <point x="530" y="377"/>
      <point x="570" y="443"/>
      <point x="570" y="516" type="curve" smooth="yes"/>
      <point x="570" y="616"/>
      <point x="492" y="687"/>
      <point x="381" y="687" type="curve" smooth="yes"/>
      <point x="94" y="687" type="line"/>
      <point x="94" y="0" type="line"/>
    </contour>
    <contour>
      <point x="130" y="340" type="line"/>
      <point x="393" y="340" type="line" smooth="yes"/>
      <point x="491" y="340"/>
      <point x="561" y="277"/>
      <point x="561" y="188" type="curve" smooth="yes"/>
      <point x="561" y="99"/>
      <point x="491" y="36"/>
      <point x="393" y="36" type="curve" smooth="yes"/>
      <point x="130" y="36" type="line"/>
    </contour>
    <contour>
      <point x="130" y="651" type="line"/>
      <point x="381" y="651" type="line" smooth="yes"/>
      <point x="471" y="651"/>
      <point x="534" y="595"/>
      <point x="534" y="516" type="curve" smooth="yes"/>
      <point x="534" y="434"/>
      <point x="476" y="376"/>
      <point x="393" y="376" type="curve" smooth="yes"/>
      <point x="130" y="376" type="line"/>
    </contour>
  </outline>
</glyph>
<glyph name="I" format="1">
  <advance width="194"/>
  <unicode hex="0049"/>
  <outline>
    <contour>
      <point x="115" y="0" type="line"/>
      <point x="115" y="687" type="line"/>
      <point x="79" y="687" type="line"/>
      <point x="79" y="0" type="line"/>
    </contour>
    <contour>
      <point x="97" y="687" type="move" name="top"/>
    </contour>
  </outline>
</glyph>
<glyph name="L" format="1">
  <advance width="534"/>
  <unicode hex="004C"/>
  <outline>
    <contour>
      <point x="500" y="0" type="line"/>
      <point x="500" y="36" type="line"/>
      <point x="93" y="36" type="line"/>
      <point x="104" y="24" type="line"/>
      <point x="104" y="687" type="line"/>
      <point x="68" y="687" type="line"/>
      <point x="68" y="0" type="line"/>
    </contour>
  </outline>
</glyph>
<glyph name="O" format="1">
  <advance width="807"/>
  <unicode hex="004F"/>
  <outline>
    <contour>
      <point x="595" y="-12"/>
      <point x="755" y="151"/>
      <point x="755" y="344" type="curve" smooth="yes"/>
      <point x="755" y="537"/>
      <point x="595" y="699"/>
      <point x="404" y="699" type="curve" smooth="yes"/>
      <point x="213" y="699"/>
      <point x="52" y="537"/>
      <point x="52" y="344" type="curve" smooth="yes"/>
      <point x="52" y="151"/>
      <point x="213" y="-12"/>
      <point x="404" y="-12" type="curve" smooth="yes"/>
    </contour>
    <contour>
      <point x="232" y="24"/>
      <point x="88" y="170"/>
      <point x="88" y="344" type="curve" smooth="yes"/>
      <point x="88" y="517"/>
      <point x="232" y="663"/>
      <point x="404" y="663" type="curve" smooth="yes"/>
      <point x="575" y="663"/>
      <point x="719" y="517"/>
      <point x="719" y="344" type="curve" smooth="yes"/>
      <point x="719" y="170"/>
      <point x="575" y="24"/>
      <point x="404" y="24" type="curve" smooth="yes"/>
    </contour>
    <contour>
      <point x="404" y="687" type="move" name="top"/>
    </contour>
  </outline>
</glyph>
<glyph name="Q" format="1">
  <advance width="807"/>
  <unicode hex="0051"/>
  <outline>
    <contour>
      <point x="728" y="27" type="line"/>
      <point x="485" y="237" type="line"/>
      <point x="462" y="210" type="line"/>
      <point x="704" y="0" type="line"/>
    </contour>
    <component base="O"/>
  </outline>
</glyph>
<glyph name="R" format="1">
  <advance width="639"/>
  <unicode hex="0052"/>
  <outline>
    <contour>
      <point x="582" y="0" type="line"/>
      <point x="378" y="291" type="line"/>
      <point x="334" y="291" type="line"/>
      <point x="538" y="0" type="line"/>
    </contour>
    <component base="P"/>
  </outline>
</glyph>
<glyph name="U" format="1">
  <advance width="704"/>
  <unicode hex="0055"/>
  <outline>
    <contour>
      <point x="508" y="-12"/>
      <point x="618" y="103"/>
      <point x="618" y="265" type="curve"/>
      <point x="618" y="687" type="line"/>
      <point x="582" y="687" type="line"/>
      <point x="582" y="265" type="line"/>
      <point x="582" y="124"/>
      <point x="487" y="24"/>
      <point x="352" y="24" type="curve"/>
      <point x="217" y="24"/>
      <point x="122" y="124"/>
      <point x="122" y="265" type="curve"/>
      <point x="122" y="687" type="line"/>
      <point x="86" y="687" type="line"/>
      <point x="86" y="265" type="line"/>
      <point x="86" y="103"/>
      <point x="196" y="-12"/>
      <point x="352" y="-12" type="curve"/>
    </contour>
    <contour>
      <point x="352" y="687" type="move" name="top"/>
    </contour>
  </outline>
</glyph>
<glyph name="V" format="1">
  <advance width="710"/>
  <unicode hex="0056"/>
  <outline>
    <contour>
      <point x="375" y="0" type="line"/>
      <point x="678" y="687" type="line"/>
      <point x="638" y="687" type="line"/>
      <point x="335" y="0" type="line"/>
    </contour>
    <contour>
      <point x="375" y="0" type="line"/>
      <point x="72" y="687" type="line"/>
      <point x="32" y="687" type="line"/>
      <point x="335" y="0" type="line"/>
    </contour>
  </outline>
</glyph>
<glyph name="Z" format="1">
  <advance width="619"/>
  <unicode hex="005A"/>
  <outline>
    <contour>
      <point x="563" y="0" type="line"/>
      <point x="563" y="36" type="line"/>
      <point x="102" y="36" type="line"/>
      <point x="559" y="657" type="line"/>
      <point x="559" y="687" type="line"/>
      <point x="65" y="687" type="line"/>
      <point x="65" y="651" type="line"/>
      <point x="515" y="651" type="line"/>
      <point x="58" y="30" type="line"/>
      <point x="58" y="0" type="line"/>
    </contour>
    <contour>
      <point x="311" y="687" type="move" name="top"/>
    </contour>
  </outline>
</glyph>
<glyph name="backslash" format="1">
  <advance width="369"/>
  <unicode hex="005C"/>
  <outline>
    <contour>
      <point x="385" y="-74" type="line"/>
      <point x="34" y="743" type="line"/>
      <point x="-5" y="743" type="line"/>
      <point x="346" y="-74" type="line"/>
    </contour>
  </outline>
</glyph>
<glyph name="bracketright" format="1">
  <advance width="351"/>
  <unicode hex="005D"/>
  <outline>
    <contour>
      <point x="270" y="-115" type="line"/>
      <point x="270" y="734" type="line"/>
      <point x="49" y="734" type="line"/>
      <point x="49" y="698" type="line"/>
      <point x="234" y="698" type="line"/>
      <point x="234" y="-79" type="line"/>
      <point x="49" y="-79" type="line"/>
      <point x="49" y="-115" type="line"/>
    </contour>
  </outline>
</glyph>
<glyph name="asciicircum" format="1">
  <advance width="470"/>
  <unicode hex="005E"/>
  <outline>
    <contour>
      <point x="98" y="413" type="line"/>
      <point x="235" y="647" type="line"/>
      <point x="372" y="413" type="line"/>
      <point x="416" y="413" type="line"/>
      <point x="256" y="687" type="line"/>
      <point x="214" y="687" type="line"/>
      <point x="54" y="413" type="line"/>
    </contour>
  </outline>
</glyph>
<glyph name="a" format="1">
  <advance width="554"/>
  <unicode hex="0061"/>
  <outline>
    <contour>
      <point x="477" y="0" type="line"/>
      <point x="477" y="315" type="line" smooth="yes"/>
      <point x="477" y="440"/>
      <point x="398" y="529"/>
      <point x="286" y="529" type="curve" smooth="yes"/>
      <point x="214" y="529"/>
      <point x="155" y="510"/>
      <point x="100" y="479" type="curve"/>
      <point x="115" y="448" type="line"/>
      <point x="163" y="476"/>
      <point x="211" y="493"/>
      <point x="284" y="493" type="curve" smooth="yes"/>
      <point x="376" y="493"/>
      <point x="441" y="419"/>
      <point x="441" y="315" type="curve" smooth="yes"/>
      <point x="441" y="0" type="line"/>
    </contour>
    <contour>
      <point x="321" y="-12"/>
      <point x="437" y="35"/>
      <point x="458" y="123" type="curve"/>
      <point x="441" y="162" type="line"/>
      <point x="421" y="67"/>
      <point x="313" y="24"/>
      <point x="245" y="24" type="curve" smooth="yes"/>
      <point x="152" y="24"/>
      <point x="86" y="78"/>
      <point x="86" y="154" type="curve" smooth="yes"/>
      <point x="86" y="233"/>
      <point x="158" y="289"/>
      <point x="259" y="289" type="curve" smooth="yes"/>
      <point x="329" y="289"/>
      <point x="399" y="268"/>
      <point x="454" y="248" type="curve"/>
      <point x="454" y="284" type="line"/>
      <point x="393" y="308"/>
      <point x="321" y="325"/>
      <point x="253" y="325" type="curve" smooth="yes"/>
      <point x="134" y="325"/>
      <point x="50" y="254"/>
      <point x="50" y="153" type="curve" smooth="yes"/>
      <point x="50" y="56"/>
      <point x="128" y="-12"/>
      <point x="239" y="-12" type="curve" smooth="yes"/>
    </contour>
    <contour>
      <point x="477" y="0" type="move" name="onogek"/>
    </contour>
    <contour>
      <point x="286" y="0" type="move" name="bottom"/>
    </contour>
    <contour>
      <point x="289" y="517" type="move" name="top"/>
    </contour>
  </outline>
</glyph>
<glyph name="b" format="1">
  <advance width="609"/>
  <unicode hex="0062"/>
  <outline>
    <contour>
      <point x="119" y="1" type="line"/>
      <point x="119" y="699" type="line"/>
      <point x="83" y="699" type="line"/>
      <point x="83" y="1" type="line"/>
    </contour>
    <component base="lowercase_loop" xOffset="-6"/>
  </outline>
</glyph>
<glyph name="d" format="1">
  <advance width="609"/>
  <unicode hex="0064"/>
  <outline>
    <contour>
      <point x="526" y="1" type="line"/>
      <point x="526" y="699" type="line"/>
      <point x="490" y="699" type="line"/>
      <point x="490" y="1" type="line"/>
    </contour>
    <component base="lowercase_loop" xOffset="615" xScale="-1"/>
  </outline>
</glyph>
<glyph name="h" format="1">
  <advance width="552"/>
  <unicode hex="0068"/>
  <outline>
    <contour>
      <point x="113" y="0" type="line"/>
      <point x="113" y="699" type="line"/>
      <point x="77" y="699" type="line"/>
      <point x="77" y="0" type="line"/>
    </contour>
    <component base="lowercase_nh_shoulder" xOffset="-39"/>
  </outline>
</glyph>
<glyph name="k" format="1">
  <advance width="500"/>
  <unicode hex="006B"/>
  <outline>
    <contour>
      <point x="474" y="0" type="line"/>
      <point x="254" y="280" type="line"/>
      <point x="486" y="517" type="line"/>
      <point x="436" y="517" type="line"/>
      <point x="102" y="177" type="line"/>
      <point x="102" y="125" type="line"/>
      <point x="229" y="255" type="line"/>
      <point x="428" y="0" type="line"/>
    </contour>
    <component base="ascender" xOffset="-8"/>
    <contour>
      <point x="261" y="0" type="move" name="bottom"/>
    </contour>
  </outline>
</glyph>
<glyph name="l" format="1">
  <advance width="188"/>
  <unicode hex="006C"/>
  <outline>
    <contour>
      <point x="112" y="0" type="line"/>
      <point x="112" y="699" type="line"/>
      <point x="76" y="699" type="line"/>
      <point x="76" y="0" type="line"/>
    </contour>
    <contour>
      <point x="144" y="699" type="move" name="top"/>
    </contour>
    <contour>
      <point x="112" y="0" type="move" name="bottom"/>
    </contour>
  </outline>
</glyph>
<glyph name="m" format="1">
  <advance width="858"/>
  <unicode hex="006D"/>
  <outline>
    <contour>
      <point x="782" y="0" type="line"/>
      <point x="782" y="339" type="line" smooth="yes"/>
      <point x="782" y="450"/>
      <point x="710" y="529"/>
      <point x="607" y="529" type="curve" smooth="yes"/>
      <point x="512" y="529"/>
      <point x="438" y="472"/>
      <point x="428" y="391" type="curve"/>
      <point x="447" y="339" type="line"/>
      <point x="447" y="429"/>
      <point x="511" y="493"/>
      <point x="602" y="493" type="curve" smooth="yes"/>
      <point x="686" y="493"/>
      <point x="746" y="427"/>
      <point x="746" y="334" type="curve" smooth="yes"/>
      <point x="746" y="0" type="line"/>
    </contour>
    <contour>
      <point x="447" y="0" type="line"/>
      <point x="447" y="339" type="line" smooth="yes"/>
      <point x="447" y="450"/>
      <point x="375" y="529"/>
      <point x="272" y="529" type="curve" smooth="yes"/>
      <point x="173" y="529"/>
      <point x="103" y="472"/>
      <point x="103" y="391" type="curve"/>
      <point x="112" y="339" type="line"/>
      <point x="112" y="429"/>
      <point x="176" y="493"/>
      <point x="267" y="493" type="curve" smooth="yes"/>
      <point x="351" y="493"/>
      <point x="411" y="427"/>
      <point x="411" y="334" type="curve" smooth="yes"/>
      <point x="411" y="0" type="line"/>
    </contour>
    <component base="idotless" xOffset="1"/>
  </outline>
</glyph>
<glyph name="n" format="1">
  <advance width="552"/>
  <unicode hex="006E"/>
  <outline>
    <contour>
      <point x="113" y="0" type="line"/>
      <point x="113" y="517" type="line"/>
      <point x="77" y="517" type="line"/>
      <point x="77" y="0" type="line"/>
    </contour>
    <component base="lowercase_nh_shoulder" xOffset="-39"/>
    <contour>
      <point x="274" y="517" type="move" name="top"/>
    </contour>
  </outline>
</glyph>
<glyph name="p" format="1">
  <advance width="609"/>
  <unicode hex="0070"/>
  <outline>
    <contour>
      <point x="119" y="-172" type="line"/>
      <point x="119" y="517" type="line"/>
      <point x="83" y="517" type="line"/>
      <point x="83" y="-172" type="line"/>
    </contour>
    <component base="lowercase_loop" xOffset="-6"/>
  </outline>
</glyph>
<glyph name="q" format="1">
  <advance width="609"/>
  <unicode hex="0071"/>
  <outline>
    <contour>
      <point x="526" y="-172" type="line"/>
      <point x="526" y="517" type="line"/>
      <point x="490" y="517" type="line"/>
      <point x="490" y="-172" type="line"/>
    </contour>
    <component base="lowercase_loop" xOffset="615" xScale="-1"/>
  </outline>
</glyph>
<glyph name="r" format="1">
  <advance width="347"/>
  <unicode hex="0072"/>
  <outline>
    <contour>
      <point x="119" y="408"/>
      <point x="202" y="493"/>
      <point x="319" y="493" type="curve"/>
      <point x="319" y="529" type="line"/>
      <point x="212" y="529"/>
      <point x="113" y="470"/>
      <point x="113" y="359" type="curve"/>
      <point x="119" y="289" type="line"/>
    </contour>
    <contour>
      <point x="119" y="0" type="line"/>
      <point x="119" y="517" type="line"/>
      <point x="83" y="517" type="line"/>
      <point x="83" y="0" type="line"/>
    </contour>
  </outline>
</glyph>
<glyph name="s" format="1">
  <advance width="486"/>
  <unicode hex="0073"/>
  <outline>
    <contour>
      <point x="356" y="-12"/>
      <point x="438" y="50"/>
      <point x="438" y="124" type="curve" smooth="yes"/>
      <point x="438" y="197"/>
      <point x="390" y="241"/>
      <point x="270" y="279" type="curve" smooth="yes"/>
      <point x="160" y="314"/>
      <point x="116" y="349"/>
      <point x="116" y="401" type="curve" smooth="yes"/>
      <point x="116" y="451"/>
      <point x="178" y="493"/>
      <point x="251" y="493" type="curve" smooth="yes"/>
      <point x="304" y="493"/>
      <point x="364" y="474"/>
      <point x="414" y="443" type="curve"/>
      <point x="436" y="471" type="line"/>
      <point x="380" y="507"/>
      <point x="312" y="529"/>
      <point x="251" y="529" type="curve" smooth="yes"/>
      <point x="158" y="529"/>
      <point x="80" y="469"/>
      <point x="80" y="397" type="curve" smooth="yes"/>
      <point x="80" y="328"/>
      <point x="129" y="285"/>
      <point x="252" y="247" type="curve" smooth="yes"/>
      <point x="359" y="214"/>
      <point x="402" y="178"/>
      <point x="402" y="120" type="curve" smooth="yes"/>
      <point x="402" y="68"/>
      <point x="337" y="24"/>
      <point x="259" y="24" type="curve" smooth="yes"/>
      <point x="198" y="24"/>
      <point x="127" y="50"/>
      <point x="67" y="93" type="curve"/>
      <point x="45" y="65" type="line"/>
      <point x="105" y="17"/>
      <point x="185" y="-12"/>
      <point x="259" y="-12" type="curve" smooth="yes"/>
    </contour>
    <contour>
      <point x="252" y="517" type="move" name="top"/>
    </contour>
    <contour>
      <point x="248" y="0" type="move" name="bottom"/>
    </contour>
  </outline>
</glyph>
<glyph name="t" format="1">
  <advance width="360"/>
  <unicode hex="0074"/>
  <outline>
    <contour>
      <point x="268" y="-12"/>
      <point x="303" y="0"/>
      <point x="330" y="21" type="curve"/>
      <point x="310" y="50" type="line"/>
      <point x="289" y="34"/>
      <point x="262" y="24"/>
      <point x="236" y="24" type="curve" smooth="yes"/>
      <point x="194" y="24"/>
      <point x="164" y="64"/>
      <point x="164" y="120" type="curve" smooth="yes"/>
      <point x="164" y="659" type="line"/>
      <point x="128" y="659" type="line"/>
      <point x="128" y="120" type="line" smooth="yes"/>
      <point x="128" y="43"/>
      <point x="172" y="-12"/>
      <point x="234" y="-12" type="curve" smooth="yes"/>
    </contour>
    <contour>
      <point x="300" y="481" type="line"/>
      <point x="300" y="517" type="line"/>
      <point x="37" y="517" type="line"/>
      <point x="37" y="481" type="line"/>
    </contour>
    <contour>
      <point x="235" y="0" type="move" name="bottom"/>
    </contour>
  </outline>
</glyph>
<glyph name="u" format="1">
  <advance width="552"/>
  <unicode hex="0075"/>
  <outline>
    <component base="n" xOffset="552" yOffset="517" xScale="-1" yScale="-1"/>
    <contour>
      <point x="275" y="517" type="move" name="top"/>
    </contour>
  </outline>
</glyph>
<glyph name="asciitilde" format="1">
  <advance width="451"/>
  <unicode hex="007E"/>
  <outline>
    <component base="tilde" yOffset="-275"/>
    <contour>
      <point x="226" y="704" type="move" name="top"/>
    </contour>
    <contour>
      <point x="226" y="517" type="move" name="_top"/>
    </contour>
  </outline>
</glyph>
<glyph name="dieresis" format="1">
  <advance width="410"/>
  <unicode hex="00A8"/>
  <outline>
    <contour>
      <point x="125" y="613"/>
      <point x="139" y="627"/>
      <point x="139" y="643" type="curve" smooth="yes"/>
      <point x="139" y="659"/>
      <point x="125" y="673"/>
      <point x="109" y="673" type="curve" smooth="yes"/>
      <point x="92" y="673"/>
      <point x="79" y="659"/>
      <point x="79" y="643" type="curve" smooth="yes"/>
      <point x="79" y="627"/>
      <point x="92" y="613"/>
      <point x="109" y="613" type="curve" smooth="yes"/>
    </contour>
    <contour>
      <point x="317" y="613"/>
      <point x="331" y="627"/>
      <point x="331" y="643" type="curve" smooth="yes"/>
      <point x="331" y="659"/>
      <point x="317" y="673"/>
      <point x="301" y="673" type="curve" smooth="yes"/>
      <point x="284" y="673"/>
      <point x="271" y="659"/>
      <point x="271" y="643" type="curve" smooth="yes"/>
      <point x="271" y="627"/>
      <point x="284" y="613"/>
      <point x="301" y="613" type="curve" smooth="yes"/>
    </contour>
    <contour>
      <point x="205" y="704" type="move" name="top"/>
    </contour>
    <contour>
      <point x="205" y="517" type="move" name="_top"/>
    </contour>
  </outline>
</glyph>
<glyph name="AE" format="1">
  <advance width="955"/>
  <unicode hex="00C6"/>
  <outline>
    <contour>
      <point x="74" y="0" type="line"/>
      <point x="470" y="687" type="line"/>
      <point x="429" y="687" type="line"/>
      <point x="32" y="0" type="line"/>
    </contour>
    <contour>
      <point x="471" y="175" type="line"/>
      <point x="471" y="211" type="line"/>
      <point x="162" y="211" type="line"/>
      <point x="162" y="175" type="line"/>
    </contour>
    <component base="E" xOffset="370"/>
  </outline>
</glyph>
<glyph name="multiply" format="1">
  <advance width="515"/>
  <unicode hex="00D7"/>
  <outline>
    <contour>
      <point x="433" y="484" type="line"/>
      <point x="407" y="509" type="line"/>
      <point x="83" y="185" type="line"/>
      <point x="108" y="159" type="line"/>
    </contour>
    <contour>
      <point x="432" y="185" type="line"/>
      <point x="108" y="509" type="line"/>
      <point x="82" y="484" type="line"/>
      <point x="407" y="159" type="line"/>
    </contour>
  </outline>
</glyph>
<glyph name="Thorn" format="1">
  <advance width="639"/>
  <unicode hex="00DE"/>
  <outline>
    <contour>
      <point x="115" y="0" type="line"/>
      <point x="115" y="136" type="line"/>
      <point x="368" y="136" type="line" smooth="yes"/>
      <point x="507" y="136"/>
      <point x="606" y="223"/>
      <point x="606" y="346" type="curve" smooth="yes"/>
      <point x="606" y="469"/>
      <point x="507" y="556"/>
      <point x="368" y="556" type="curve" smooth="yes"/>
      <point x="115" y="556" type="line"/>
      <point x="115" y="687" type="line"/>
      <point x="79" y="687" type="line"/>
      <point x="79" y="0" type="line"/>
    </contour>
    <contour>
      <point x="115" y="520" type="line"/>
      <point x="361" y="520" type="line" smooth="yes"/>
      <point x="483" y="520"/>
      <point x="570" y="448"/>
      <point x="570" y="346" type="curve" smooth="yes"/>
      <point x="570" y="244"/>
      <point x="483" y="172"/>
      <point x="361" y="172" type="curve" smooth="yes"/>
      <point x="115" y="172" type="line"/>
    </contour>
  </outline>
</glyph>
<glyph name="germandbls" format="1">
  <advance width="534"/>
  <unicode hex="00DF"/>
  <outline>
    <contour>
      <point x="120" y="0" type="line"/>
      <point x="120" y="517" type="line" smooth="yes"/>
      <point x="120" y="601"/>
      <point x="189" y="671"/>
      <point x="272" y="671" type="curve" smooth="yes"/>
      <point x="354" y="671"/>
      <point x="423" y="602"/>
      <point x="423" y="519" type="curve" smooth="yes"/>
      <point x="423" y="437"/>
      <point x="361" y="379"/>
      <point x="274" y="379" type="curve" smooth="yes"/>
      <point x="206" y="379" type="line"/>
      <point x="206" y="343" type="line"/>
      <point x="280" y="343" type="line" smooth="yes"/>
      <point x="380" y="343"/>
      <point x="450" y="282"/>
      <point x="450" y="196" type="curve" smooth="yes"/>
      <point x="450" y="109"/>
      <point x="374" y="36"/>
      <point x="283" y="36" type="curve" smooth="yes"/>
      <point x="206" y="36" type="line"/>
      <point x="206" y="0" type="line"/>
      <point x="303" y="0" type="line" smooth="yes"/>
      <point x="402" y="0"/>
      <point x="486" y="87"/>
      <point x="486" y="191" type="curve" smooth="yes"/>
      <point x="486" y="264"/>
      <point x="439" y="336"/>
      <point x="372" y="365" type="curve"/>
      <point x="423" y="389"/>
      <point x="459" y="455"/>
      <point x="459" y="524" type="curve" smooth="yes"/>
      <point x="459" y="623"/>
      <point x="374" y="707"/>
      <point x="272" y="707" type="curve" smooth="yes"/>
      <point x="170" y="707"/>
      <point x="84" y="623"/>
      <point x="84" y="523" type="curve" smooth="yes"/>
      <point x="84" y="0" type="line"/>
    </contour>
  </outline>
</glyph>
<glyph name="lslash" format="1">
  <advance width="269"/>
  <unicode hex="0142"/>
  <outline>
    <contour>
      <point x="232" y="349" type="line"/>
      <point x="232" y="390" type="line"/>
      <point x="37" y="290" type="line"/>
      <point x="37" y="249" type="line"/>
    </contour>
    <component base="l" xOffset="41"/>
  </outline>
</glyph>
<glyph name="OE" format="1">
  <advance width="990"/>
  <unicode hex="0152"/>
  <outline>
    <contour>
      <point x="510" y="0" type="line"/>
      <point x="510" y="36" type="line"/>
      <point x="404" y="36" type="line" smooth="yes"/>
      <point x="232" y="36"/>
      <point x="88" y="170"/>
      <point x="88" y="344" type="curve" smooth="yes"/>
      <point x="88" y="517"/>
      <point x="232" y="651"/>
      <point x="404" y="651" type="curve" smooth="yes"/>
      <point x="510" y="651" type="line"/>
      <point x="510" y="687" type="line"/>
      <point x="404" y="687" type="line" smooth="yes"/>
      <point x="213" y="687"/>
      <point x="52" y="537"/>
      <point x="52" y="344" type="curve" smooth="yes"/>
      <point x="52" y="151"/>
      <point x="213" y="0"/>
      <point x="404" y="0" type="curve" smooth="yes"/>
    </contour>
    <component base="E" xOffset="405"/>
  </outline>
</glyph>
<glyph name="jdotless" format="1">
  <advance width="161"/>
  <unicode hex="0237"/>
  <outline>
    <contour>
      <point x="54" y="-178"/>
      <point x="98" y="-127"/>
      <point x="98" y="-56" type="curve" smooth="yes"/>
      <point x="98" y="517" type="line"/>
      <point x="62" y="517" type="line"/>
      <point x="62" y="-56" type="line" smooth="yes"/>
      <point x="62" y="-106"/>
      <point x="32" y="-142"/>
      <point x="-11" y="-142" type="curve" smooth="yes"/>
      <point x="-35" y="-142"/>
      <point x="-65" y="-136"/>
      <point x="-83" y="-128" type="curve"/>
      <point x="-90" y="-162" type="line"/>
      <point x="-69" y="-171"/>
      <point x="-36" y="-178"/>
      <point x="-9" y="-178" type="curve" smooth="yes"/>
    </contour>
  </outline>
</glyph>
<glyph name="breve" format="1">
  <advance width="418"/>
  <unicode hex="02D8"/>
  <outline>
    <contour>
      <point x="262" y="589"/>
      <point x="315" y="609"/>
      <point x="355" y="649" type="curve"/>
      <point x="329" y="675" type="line"/>
      <point x="297" y="643"/>
      <point x="253" y="626"/>
      <point x="209" y="626" type="curve" smooth="yes"/>
      <point x="165" y="626"/>
      <point x="121" y="643"/>
      <point x="89" y="675" type="curve"/>
      <point x="63" y="649" type="line"/>
      <point x="104" y="609"/>
      <point x="156" y="589"/>
      <point x="209" y="589" type="curve" smooth="yes"/>
    </contour>
    <contour>
      <point x="209" y="704" type="move" name="top"/>
    </contour>
    <contour>
      <point x="209" y="517" type="move" name="_top"/>
    </contour>
  </outline>
</glyph>
<glyph name="ring" format="1">
  <advance width="332"/>
  <unicode hex="02DA"/>
  <outline>
    <contour>
      <point x="223" y="589"/>
      <point x="269" y="635"/>
      <point x="269" y="692" type="curve" smooth="yes"/>
      <point x="269" y="749"/>
      <point x="223" y="795"/>
      <point x="166" y="795" type="curve" smooth="yes"/>
      <point x="109" y="795"/>
      <point x="63" y="749"/>
      <point x="63" y="692" type="curve" smooth="yes"/>
      <point x="63" y="635"/>
      <point x="109" y="589"/>
      <point x="166" y="589" type="curve" smooth="yes"/>
    </contour>
    <contour>
      <point x="130" y="625"/>
      <point x="99" y="656"/>
      <point x="99" y="692" type="curve" smooth="yes"/>
      <point x="99" y="728"/>
      <point x="130" y="759"/>
      <point x="166" y="759" type="curve" smooth="yes"/>
      <point x="202" y="759"/>
      <point x="233" y="728"/>
      <point x="233" y="692" type="curve" smooth="yes"/>
      <point x="233" y="656"/>
      <point x="202" y="625"/>
      <point x="166" y="625" type="curve" smooth="yes"/>
    </contour>
    <contour>
      <point x="166" y="704" type="move" name="top"/>
    </contour>
    <contour>
      <point x="166" y="517" type="move" name="_top"/>
    </contour>
  </outline>
</glyph>
<glyph name="euro" format="1">
  <advance width="680"/>
  <unicode hex="20AC"/>
  <outline>
    <contour>
      <point x="472" y="252" type="line"/>
      <point x="472" y="288" type="line"/>
      <point x="-24" y="288" type="line"/>
      <point x="-24" y="252" type="line"/>
    </contour>
    <contour>
      <point x="472" y="419" type="line"/>
      <point x="472" y="455" type="line"/>
      <point x="-24" y="455" type="line"/>
      <point x="-24" y="419" type="line"/>
    </contour>
    <component base="C"/>
  </outline>
</glyph>
<glyph name="minus" format="1">
  <advance width="593"/>
  <unicode hex="2212"/>
  <outline>
    <contour>
      <point x="526" y="316" type="line"/>
      <point x="526" y="352" type="line"/>
      <point x="67" y="352" type="line"/>
      <point x="67" y="316" type="line"/>
    </contour>
  </outline>
</glyph>
<glyph name="lowercase_loop" format="1">
  <advance width="605"/>
  <outline>
    <contour>
      <point x="455" y="-12"/>
      <point x="561" y="112"/>
      <point x="561" y="259" type="curve" smooth="yes"/>
      <point x="561" y="406"/>
      <point x="455" y="529"/>
      <point x="329" y="529" type="curve" smooth="yes"/>
      <point x="188" y="529"/>
      <point x="89" y="417"/>
      <point x="89" y="259" type="curve" smooth="yes"/>
      <point x="89" y="100"/>
      <point x="188" y="-12"/>
      <point x="329" y="-12" type="curve" smooth="yes"/>
    </contour>
    <contour>
      <point x="207" y="24"/>
      <point x="125" y="121"/>
      <point x="125" y="259" type="curve" smooth="yes"/>
      <point x="125" y="396"/>
      <point x="207" y="493"/>
      <point x="322" y="493" type="curve" smooth="yes"/>
      <point x="432" y="493"/>
      <point x="525" y="386"/>
      <point x="525" y="259" type="curve" smooth="yes"/>
      <point x="525" y="131"/>
      <point x="432" y="24"/>
      <point x="322" y="24" type="curve" smooth="yes"/>
    </contour>
  </outline>
</glyph>
